<svg version="1" xmlns="http://www.w3.org/2000/svg" width="346.667" height="346.667" viewBox="0 0 260.000000 260.000000"><path d="M95 14.1c-18.4 7.7-36.4 15.1-40 16.6-3.6 1.4-8.4 3.4-10.7 4.4-2.3 1.1-4.6 1.9-5.1 1.9-.4 0-1.9 2.6-3.2 5.7-1.3 3.2-3.1 7.6-4.1 9.8-1 2.2-8.5 20.3-16.8 40.2C2.5 123.1.2 129.3.9 131.7c.7 2.4 24.6 60.5 27.1 65.8.5 1.1 3 7 5.5 13.1l4.6 11.1 6.2 2.6c3.4 1.4 14.5 6 24.7 10.2 10.2 4.2 21.7 8.9 25.5 10.5 3.9 1.6 13.4 5.6 21.3 8.8l14.4 6 8.1-3.5c4.5-1.9 12.5-5.1 17.7-7.3 5.2-2.1 11.3-4.5 13.5-5.5 2.2-.9 15-6.2 28.4-11.8l24.5-10.2 6.3-15.5c5.9-14.4 10.2-24.7 12.3-29.5.5-1.1 2.5-5.8 4.4-10.5 1.9-4.7 6-14.5 9-21.9 3.1-7.4 5.6-13.9 5.6-14.6 0-1-4.6-12.5-8-20-.5-1.1-2.9-7-5.4-13-2.5-6.1-6.6-16-9.1-22-2.6-6.1-5.3-12.6-6-14.5-.8-1.9-3.2-7.8-5.4-13l-3.9-9.4-11.9-4.9c-6.5-2.6-12.7-5.2-13.8-5.6-1.1-.5-4.9-2.1-8.5-3.5-3.6-1.5-7.4-3.1-8.5-3.6-1.1-.5-8.7-3.7-17-7-8.2-3.4-16.9-7-19.2-8.1-2.4-1-4.7-1.9-5.2-1.9s-2.2-.7-3.7-1.5C132.8.7 130.8 0 130 .1c-.8 0-16.6 6.3-35 14zm33 18.8v27.9l-12.7 6.8c-7.1 3.7-15 7.9-17.8 9.4-8.1 4.3-21.9 11.7-31 16.5-21.9 11.6-26.6 14.1-35 18.5-4.9 2.6-12.5 6.6-16.7 8.9-8.7 4.6-9.2 4.8-7.9 2.3.5-.9 1.9-4.2 3.1-7.2 1.3-3 2.6-6.4 3.1-7.5.4-1.1 3.8-9.2 7.4-18C41 41 40.9 41.1 44.9 39.4c4.5-1.9 35.6-14.8 43.1-17.9 3-1.2 10.7-4.4 17-7 17.3-7.2 22.5-9.3 22.8-9.4.1-.1.2 12.5.2 27.8zM149.5 12c2.2 1.1 26.7 11.2 47.1 19.5 7.3 3 15.2 6.3 17.7 7.5l4.5 2.1v84c0 46.2-.1 83.9-.3 83.7-.3-.4-11.1-25.7-13.4-31.7-1-2.5-4.8-11.6-8.3-20.1-9.3-22.2-35.4-85-39.3-94.5-8.1-19.8-21.9-52.9-23.3-55.8-.3-.7 11 3.2 15.3 5.3zm-13.9 8.5c.7 1.6 4.6 11.1 8.7 21s10.5 25.1 14.1 33.7c3.6 8.7 7.5 17.9 8.5 20.5C171 106 197 168.6 200 175.5c.5 1.1 1.6 3.8 2.5 6 .9 2.2 3.7 8.9 6.2 15 2.5 6 5.6 13.6 6.9 16.8l2.3 5.7-3.7 1.6c-2 .9-7.1 2.9-11.2 4.5s-8.4 3.4-9.5 3.9c-5.6 2.6-60.3 25-61 25-.3 0-.5-54.3-.4-120.8 0-88.8.3-120 1.1-118.2.6 1.4 1.7 3.8 2.4 5.5zm97.9 55c1.3 3.3 6.9 16.7 12.4 29.9s9.7 24.6 9.4 25.5c-.9 2.4-23.9 58.1-28.4 68.6l-3.8 9v-158l4 9.5c2.2 5.2 5.1 12.2 6.4 15.5zM128 129.9v63.9l-18.2-9.7c-10.1-5.4-23.7-12.6-30.3-16.1-6.6-3.4-15.4-8.1-19.5-10.3-4.1-2.2-10.6-5.7-14.5-7.7-14.9-7.9-31.2-16.5-34.8-18.3-2.1-1.1-3.7-2.1-3.5-2.2.2-.2 5.3-2.9 11.3-6 6.1-3.2 14.2-7.5 18-9.5 6.8-3.6 12.9-6.9 34-18 5.5-2.9 12.4-6.6 15.4-8.3 3-1.6 10.9-5.7 17.5-9.2 6.7-3.5 14.6-7.7 17.6-9.4 3-1.6 5.8-3 6.3-3 .4-.1.7 28.7.7 63.8zM38.5 151c4.4 2.3 11.6 6.1 16 8.5 4.4 2.3 13 6.8 19 10 6.1 3.2 13.3 7 16 8.5 2.8 1.5 10.4 5.6 17 9.1 6.6 3.4 14.1 7.4 16.8 8.8l4.7 2.6v27.7c0 15.3-.2 27.8-.5 27.8s-5.8-2.2-12.3-4.9c-6.4-2.6-25.7-10.6-42.9-17.7l-31.2-12.9-5.2-12.5c-8.2-19.8-16.3-39.5-25.7-62.3l-4.1-9.8 12.2 6.4c6.7 3.6 15.8 8.3 20.2 10.7z"/></svg>